<svg xmlns="http://www.w3.org/2000/svg" width="512" height="512" viewBox="0 0 986.8 986.8"><path d="M399.8 164.649H110.5c-22.1 0-40 17.9-40 40s17.9 40 40 40h289.3c22.101 0 40-17.9 40-40 0-22.099-17.9-40-40-40zm0 286.201H206.5c-22.1 0-40 17.9-40 40 0 22.099 17.9 40 40 40h193.3c22.101 0 40-17.9 40-40s-17.9-40-40-40zm0-143.1H40c-22.1 0-40 17.9-40 40s17.9 40 40 40h359.8c22.101 0 40-17.9 40-40s-17.9-40-40-40zm0 286.3H40c-22.1 0-40 17.898-40 40 0 22.1 17.9 40 40 40h359.8c22.101 0 40-17.9 40-40 0-22.101-17.9-40-40-40zm0 143.1H40c-22.1 0-40 17.9-40 40s17.9 40 40 40h359.8c22.101 0 40-17.9 40-40s-17.9-40-40-40zm527-576.9H572.4c-33.101 0-60 26.9-60 60v546.3c0 33.1 26.899 60 60 60h354.4c33.101 0 60-26.9 60-60v-546.3c0-33.2-26.8-60-60-60z" data-original="#000000" class="active-path" data-old_color="#000000" fill="#FFF"/></svg>