<svg xmlns="http://www.w3.org/2000/svg" viewBox="0 0 315.58 315.58" width="512" height="512"><path d="M310.58 33.331H5a5 5 0 00-5 5v238.918a5 5 0 005 5h305.58c2.763 0 5-2.238 5-5V38.331c0-2.762-2.237-5-5-5zm-25 209.055l-68.766-71.214a2.047 2.047 0 00-2.823-.114l-47.695 41.979-60.962-75.061a2.007 2.007 0 00-1.63-.756 2.043 2.043 0 00-1.597.822L30 234.797V63.331h255.58v179.055z" data-original="#000000" class="active-path" data-old_color="#000000" fill="#FFF"/><path d="M210.059 135.555c13.538 0 24.529-10.982 24.529-24.531 0-13.545-10.991-24.533-24.529-24.533-13.549 0-24.528 10.988-24.528 24.533 0 13.548 10.98 24.531 24.528 24.531z" data-original="#000000" class="active-path" data-old_color="#000000" fill="#FFF"/></svg>