<?xml version="1.0" encoding="iso-8859-1"?>
<!-- Generator: Adobe Illustrator 16.0.0, SVG Export Plug-In . SVG Version: 6.00 Build 0)  -->
<!DOCTYPE svg PUBLIC "-//W3C//DTD SVG 1.1//EN" "http://www.w3.org/Graphics/SVG/1.1/DTD/svg11.dtd">
<svg version="1.1" id="Capa_1" xmlns="http://www.w3.org/2000/svg" xmlns:xlink="http://www.w3.org/1999/xlink" x="0px" y="0px"
	 width="986.8px" height="986.8px" viewBox="0 0 986.8 986.8" style="enable-background:new 0 0 986.8 986.8;" xml:space="preserve"
	>
<g>
	<path d="M399.8,164.649H110.5c-22.1,0-40,17.9-40,40c0,22.1,17.9,40,40,40h289.3c22.101,0,40-17.9,40-40
		C439.8,182.55,421.9,164.649,399.8,164.649z"/>
	<path d="M399.8,450.85H206.5c-22.1,0-40,17.9-40,40c0,22.099,17.9,40,40,40h193.3c22.101,0,40-17.9,40-40
		C439.8,468.75,421.9,450.85,399.8,450.85z"/>
	<path d="M399.8,307.75H40c-22.1,0-40,17.9-40,40s17.9,40,40,40h359.8c22.101,0,40-17.9,40-40S421.9,307.75,399.8,307.75z"/>
	<path d="M399.8,594.05H40c-22.1,0-40,17.898-40,40c0,22.1,17.9,40,40,40h359.8c22.101,0,40-17.9,40-40
		C439.8,611.949,421.9,594.05,399.8,594.05z"/>
	<path d="M399.8,737.15H40c-22.1,0-40,17.9-40,40s17.9,40,40,40h359.8c22.101,0,40-17.9,40-40S421.9,737.15,399.8,737.15z"/>
	<path d="M926.8,160.25H572.4c-33.101,0-60,26.9-60,60V766.55c0,33.1,26.899,60,60,60H926.8c33.101,0,60-26.9,60-60V220.25
		C986.8,187.05,960,160.25,926.8,160.25z"/>
</g>
<g>
</g>
<g>
</g>
<g>
</g>
<g>
</g>
<g>
</g>
<g>
</g>
<g>
</g>
<g>
</g>
<g>
</g>
<g>
</g>
<g>
</g>
<g>
</g>
<g>
</g>
<g>
</g>
<g>
</g>
</svg>
