<?xml version="1.0"?>
<svg xmlns="http://www.w3.org/2000/svg" xmlns:xlink="http://www.w3.org/1999/xlink" version="1.1" id="Capa_1" x="0px" y="0px" width="512px" height="512px" viewBox="0 0 986.8 986.8" style="enable-background:new 0 0 986.8 986.8;" xml:space="preserve"><g><g>
	<path d="M399.8,164.649H110.5c-22.1,0-40,17.9-40,40c0,22.1,17.9,40,40,40h289.3c22.101,0,40-17.9,40-40   C439.8,182.55,421.9,164.649,399.8,164.649z" data-original="#000000" class="active-path" data-old_color="#000000" fill="#FFFFFF"/>
	<path d="M399.8,450.85H206.5c-22.1,0-40,17.9-40,40c0,22.099,17.9,40,40,40h193.3c22.101,0,40-17.9,40-40   C439.8,468.75,421.9,450.85,399.8,450.85z" data-original="#000000" class="active-path" data-old_color="#000000" fill="#FFFFFF"/>
	<path d="M399.8,307.75H40c-22.1,0-40,17.9-40,40s17.9,40,40,40h359.8c22.101,0,40-17.9,40-40S421.9,307.75,399.8,307.75z" data-original="#000000" class="active-path" data-old_color="#000000" fill="#FFFFFF"/>
	<path d="M399.8,594.05H40c-22.1,0-40,17.898-40,40c0,22.1,17.9,40,40,40h359.8c22.101,0,40-17.9,40-40   C439.8,611.949,421.9,594.05,399.8,594.05z" data-original="#000000" class="active-path" data-old_color="#000000" fill="#FFFFFF"/>
	<path d="M399.8,737.15H40c-22.1,0-40,17.9-40,40s17.9,40,40,40h359.8c22.101,0,40-17.9,40-40S421.9,737.15,399.8,737.15z" data-original="#000000" class="active-path" data-old_color="#000000" fill="#FFFFFF"/>
	<path d="M926.8,160.25H572.4c-33.101,0-60,26.9-60,60V766.55c0,33.1,26.899,60,60,60H926.8c33.101,0,60-26.9,60-60V220.25   C986.8,187.05,960,160.25,926.8,160.25z" data-original="#000000" class="active-path" data-old_color="#000000" fill="#FFFFFF"/>
</g></g> </svg>
