<svg height="512pt" viewBox="0 0 512 512" width="512pt" xmlns="http://www.w3.org/2000/svg"><path d="M506.633 316.32a8.594 8.594 0 00-9.387 2.047l-36.445 38.309V129.133h.043l34.773-37.547c3.2-3.457 2.988-8.86-.472-12.059l-.008-.007-12.517-11.65 17.39-18.773a8.532 8.532 0 00-.48-12.055L461.984 2.27a8.528 8.528 0 00-12.054.468L389.258 68.25H93.868c-.028-23.555-19.114-42.64-42.669-42.668h-8.531C19.113 25.609.028 44.695 0 68.25v366.934c0 4.71 3.82 8.53 8.535 8.53h129.176l-17.922 21.52c-3.012 3.625-2.52 9.004 1.102 12.016l39.347 32.762a8.536 8.536 0 0012.02-1.098l.004-.004 43.675-52.472a25.299 25.299 0 005.598-12.723h156.363l-51.285 53.855a8.534 8.534 0 00.305 12.063 8.517 8.517 0 005.883 2.347h170.664a8.533 8.533 0 008.535-8.53v-179.2a8.54 8.54 0 00-5.367-7.93zM477.297 86.168L460.8 104.012V91.46l10.238-11.094zm-33.563-1.52v.122l-72.168 77.996-25.062-23.188 86.937-93.953 25.063 23.188-14.668 15.835zm-88.558 86.188l-19.63 5.726 4.192-20.019zM456.629 20.574l25.05 23.176-11.593 12.55-25.055-23.198zM42.668 42.648h8.531c14.14 0 25.602 11.461 25.602 25.602v324.488a42.229 42.229 0 00-25.602-8.758h-8.531a42.22 42.22 0 00-25.602 8.758V68.25c0-14.14 11.461-25.602 25.602-25.602zm0 358.399h8.531c14.14 0 25.602 11.465 25.602 25.601H17.066c0-14.136 11.461-25.601 25.602-25.601zm160.16 44.476l-5.46 6.555-26.231-21.836 5.453-6.562a8.531 8.531 0 0112.015-1.098c.004 0 .004.004.008.004l13.114 10.89a8.532 8.532 0 011.109 12.016l-.008.008zm-38.219 45.91l-26.234-21.835 21.84-26.243 26.23 21.84zm53.34-64.785a25.342 25.342 0 00-5.308-6.261l-13.114-10.914c-10.867-9.047-27.007-7.575-36.054 3.293l-11.578 13.882H93.867V85.316H373.47l-45.285 48.938a8.29 8.29 0 00-1.52 2.484c-.102.246-.18.477-.266.735-.082.254-.21.511-.273.785l-10.188 48.707a8.533 8.533 0 0010.743 9.933l47.789-13.925c.222-.07.41-.2.62-.274.216-.078.438-.187.669-.3a8.438 8.438 0 002.558-1.801l65.418-70.7v264.696l-49.578 52.054zm276.985 68.266H352.707l142.227-149.332zm0 0"/><path d="M401.715 472.582a8.535 8.535 0 007.887 5.266h59.73a8.533 8.533 0 008.535-8.532v-59.734c0-4.715-3.824-8.531-8.535-8.531a8.52 8.52 0 00-6.031 2.5l-59.735 59.73a8.536 8.536 0 00-1.851 9.301zM460.8 430.18v30.601h-30.602zm-85.335-105.93h-59.73v-93.867a8.632 8.632 0 00-2.512-6.043l-51.2-51.2a8.532 8.532 0 00-12.066 0l-51.2 51.2a8.644 8.644 0 00-2.491 6.043v93.867h-59.73a8.533 8.533 0 100 17.066h238.933c4.71 0 8.531-3.82 8.531-8.535 0-4.71-3.82-8.531-8.535-8.531zM256 191.246l30.602 30.602h-61.204zm-42.668 47.668h85.336v85.336h-85.336zm34.133-102.398h17.07v17.066h-17.07zm0 221.867h17.07v17.066h-17.07zm0 0"/></svg>