<svg xmlns="http://www.w3.org/2000/svg" width="512" height="512" viewBox="0 0 475.092 475.092"><path d="M273.372 302.498a148.384 148.384 0 00-16.7-18.842c-6.091-5.804-12.183-11.088-18.271-15.845-6.092-4.757-11.659-9.329-16.702-13.709-5.042-4.374-9.135-8.945-12.275-13.702-3.14-4.757-4.711-9.61-4.711-14.558 0-6.855 2.19-13.278 6.567-19.274 4.377-5.996 9.707-11.799 15.986-17.417 6.28-5.617 12.559-11.753 18.844-18.415 6.276-6.665 11.604-15.465 15.985-26.412 4.373-10.944 6.563-23.458 6.563-37.542 0-16.75-3.713-32.835-11.136-48.25-7.423-15.418-17.89-27.412-31.405-35.976h38.54L303.2 0H178.441c-17.699 0-35.498 1.906-53.384 5.72-26.453 5.9-48.723 19.368-66.806 40.397-18.08 21.033-27.122 44.873-27.122 71.52 0 28.171 10.138 51.583 30.406 70.233 20.269 18.649 44.585 27.978 72.945 27.978 5.71 0 12.371-.478 19.985-1.427-.381 1.521-1.043 3.567-1.997 6.136s-1.715 4.62-2.286 6.14c-.57 1.521-1.047 3.375-1.425 5.566a38.99 38.99 0 00-.571 6.71c0 12.563 6.086 26.744 18.271 42.541-14.465.387-28.737 1.67-42.825 3.86-14.084 2.19-28.833 5.616-44.252 10.28-15.417 4.661-29.217 11.42-41.396 20.27-12.182 8.854-21.317 19.366-27.408 31.549C3.533 361.559.01 374.405.01 386.017c0 12.751 2.857 24.314 8.565 34.69 5.708 10.369 13.035 18.842 21.982 25.406 8.945 6.57 19.273 12.083 30.978 16.562 11.704 4.47 23.315 7.659 34.829 9.562 11.516 1.903 22.888 2.854 34.119 2.854 51.007 0 90.981-12.464 119.909-37.397 26.648-23.223 39.971-50.062 39.971-80.517 0-10.855-1.57-20.984-4.712-30.409-3.141-9.431-7.231-17.514-12.279-24.27zM163.311 198.722c-9.707 0-18.937-2.475-27.694-7.426-8.757-4.95-16.18-11.374-22.27-19.273-6.088-7.898-11.418-16.796-15.987-26.695-4.567-9.896-7.944-19.792-10.135-29.692-2.19-9.895-3.284-19.318-3.284-28.265 0-18.271 4.854-33.974 14.562-47.108 9.705-13.134 23.411-19.701 41.112-19.701 12.563 0 23.935 3.899 34.118 11.704 10.183 7.804 18.177 17.701 23.984 29.692a187.496 187.496 0 0113.417 37.257c3.14 12.847 4.711 24.983 4.711 36.403 0 19.036-4.139 34.317-12.419 45.833-8.282 11.513-21.651 17.271-40.115 17.271zm78.94 214.401c-5.23 8.949-12.319 15.94-21.267 20.981-8.946 5.048-18.509 8.758-28.693 11.14-10.183 2.385-20.889 3.572-32.12 3.572-12.182 0-24.27-1.431-36.258-4.284-11.99-2.851-23.459-7.187-34.403-12.991-10.944-5.8-19.795-13.798-26.551-23.982-6.757-10.184-10.135-21.744-10.135-34.69 0-11.419 2.568-21.601 7.708-30.55 5.142-8.945 11.709-16.084 19.702-21.408 7.994-5.332 17.319-9.713 27.979-13.131 10.66-3.433 20.937-5.808 30.833-7.139 9.895-1.335 19.985-1.995 30.262-1.995 6.283 0 11.043.191 14.277.567 1.143.767 4.043 2.759 8.708 5.996s7.804 5.428 9.423 6.57c1.615 1.137 4.567 3.326 8.85 6.563 4.281 3.237 7.327 5.661 9.135 7.279 1.803 1.618 4.421 4.045 7.849 7.279 3.424 3.237 5.948 6.043 7.566 8.422a982.05 982.05 0 005.996 8.702c2.38 3.433 4.043 6.715 4.998 9.855a158.985 158.985 0 012.707 10.277c.855 3.72 1.283 7.569 1.283 11.57.005 11.987-2.613 22.456-7.849 31.397z" data-original="#000000" class="active-path" data-old_color="#000000" fill="#FFF"/><path data-original="#000000" class="active-path" data-old_color="#000000" fill="#FFF" d="M401.998 73.089V0h-36.549v73.089h-73.091v36.547h73.091v73.089h36.549v-73.089h73.083V73.089z"/></svg>